<?xml version="1.0" encoding="UTF-8" standalone="no"?>
<svg xmlns="http://www.w3.org/2000/svg" version="1.2" baseProfile="tiny" viewBox="0 0 599 416">
<g stroke-width="2.00" fill="none" stroke-linecap="butt">
<path stroke="#2d2a30" vector-effect="non-scaling-stroke" d="
  M 185.83 99.26
  L 155.79 95.10
  Q 155.22 95.02 155.08 95.59
  C 153.88 100.66 153.58 106.71 152.90 111.04
  Q 151.22 121.72 151.82 132.58
  Q 151.85 133.07 151.67 133.53
  L 151.29 134.50"
/>
<path stroke="#2d2a30" vector-effect="non-scaling-stroke" d="
  M 201.29 110.00
  Q 200.93 111.76 202.20 112.61
  Q 202.63 112.89 203.08 112.63
  C 204.91 111.55 205.96 111.07 208.29 110.85
  Q 210.80 110.61 212.75 108.96"
/>
<path stroke="#2d2a30" vector-effect="non-scaling-stroke" d="
  M 215.25 108.54
  Q 219.56 109.52 223.50 107.54"
/>
<path stroke="#2d2a30" vector-effect="non-scaling-stroke" d="
  M 234.25 107.54
  Q 251.11 108.73 267.27 113.64
  Q 267.49 113.70 267.61 113.51
  L 267.75 113.29"
/>
<path stroke="#2d2a30" vector-effect="non-scaling-stroke" d="
  M 269.29 113.75
  L 269.45 114.20
  Q 269.54 114.48 269.80 114.60
  L 275.08 117.01
  A 2.66 2.66 0.0 0 0 278.36 116.14
  C 288.44 102.12 308.69 105.55 323.33 104.17
  Q 323.83 104.13 324.13 103.72
  L 324.50 103.21"
/>
<path stroke="#2d2a30" vector-effect="non-scaling-stroke" d="
  M 333.30 136.67
  L 334.20 138.15
  Q 334.37 138.44 334.68 138.31
  L 341.20 135.53
  Q 341.56 135.37 341.41 135.02
  Q 341.35 134.88 341.25 134.79"
/>
<path stroke="#2d2a30" vector-effect="non-scaling-stroke" d="
  M 345.48 133.64
  Q 351.64 133.65 357.13 131.15"
/>
<path stroke="#2d2a30" vector-effect="non-scaling-stroke" d="
  M 361.50 130.54
  C 368.99 131.57 377.43 130.81 385.01 130.44"
/>
<path stroke="#2d2a30" vector-effect="non-scaling-stroke" d="
  M 392.66 131.92
  Q 395.45 133.87 398.88 134.07
  Q 399.34 134.10 399.65 133.76
  Q 410.00 122.32 425.41 121.97
  C 430.36 121.85 434.73 119.81 439.92 119.72
  Q 440.57 119.71 440.51 120.36
  Q 440.32 122.52 441.79 122.50"
/>
<path stroke="#2d2a30" vector-effect="non-scaling-stroke" d="
  M 442.96 133.00
  Q 441.83 135.60 442.89 138.19
  Q 443.10 138.71 443.38 138.22
  Q 443.45 138.08 443.54 138.00"
/>
<path stroke="#2d2a30" vector-effect="non-scaling-stroke" d="
  M 431.25 172.79
  L 430.48 172.70
  Q 430.08 172.66 430.05 173.05
  Q 429.89 175.16 431.39 176.57"
/>
<path stroke="#2d2a30" vector-effect="non-scaling-stroke" d="
  M 459.96 297.75
  C 458.39 298.37 460.15 302.51 461.76 299.79"
/>
<path stroke="#2d2a30" vector-effect="non-scaling-stroke" d="
  M 461.00 306.70
  Q 460.02 310.70 461.89 314.31"
/>
<path stroke="#736f6f" vector-effect="non-scaling-stroke" d="
  M 460.71 324.25
  L 460.28 324.58
  Q 459.89 324.87 459.80 325.35
  C 454.63 353.65 422.14 367.52 395.99 368.73
  Q 393.75 368.84 385.21 369.75"
/>
<path stroke="#2d2a30" vector-effect="non-scaling-stroke" d="
  M 385.21 369.75
  Q 377.66 371.49 369.90 369.33
  A 1.49 1.49 0.0 0 1 369.15 366.95
  L 371.40 364.20
  Q 372.38 362.99 370.90 362.53
  Q 369.06 361.96 367.13 362.25
  Q 366.67 362.32 366.29 362.05
  Q 364.59 360.87 362.75 361.46"
/>
<path stroke="#2d2a30" vector-effect="non-scaling-stroke" d="
  M 332.50 357.21
  C 331.83 358.92 334.51 362.50 330.19 362.07
  Q 323.71 361.42 317.59 359.30"
/>
<path stroke="#2d2a30" vector-effect="non-scaling-stroke" d="
  M 279.18 348.37
  Q 274.18 348.82 270.25 352.21"
/>
<path stroke="#736f6f" vector-effect="non-scaling-stroke" d="
  M 270.25 352.21
  Q 260.24 357.23 249.32 359.72
  C 248.65 359.88 246.22 359.88 247.74 361.18"
/>
<path stroke="#736f6f" vector-effect="non-scaling-stroke" d="
  M 247.04 361.25
  Q 246.81 360.70 246.26 360.81
  Q 236.36 362.88 226.20 363.77
  A 0.60 0.60 0.0 0 0 225.88 364.84
  Q 228.24 366.68 229.64 369.37
  A 1.36 1.36 0.0 0 1 228.87 371.28
  Q 220.38 374.16 211.98 372.09
  C 206.68 370.78 201.23 370.90 195.95 370.46"
/>
<path stroke="#736f6f" vector-effect="non-scaling-stroke" d="
  M 163.70 361.52
  Q 144.98 352.87 134.46 335.25"
/>
<path stroke="#2d2a30" vector-effect="non-scaling-stroke" d="
  M 134.46 335.25
  Q 134.88 332.90 132.96 332.75"
/>
<path stroke="#2d2a30" vector-effect="non-scaling-stroke" d="
  M 129.29 319.00
  L 129.50 318.86
  Q 129.81 318.64 129.80 318.25
  L 129.54 304.24"
/>
<path stroke="#2d2a30" vector-effect="non-scaling-stroke" d="
  M 164.04 202.75
  L 164.47 204.22
  A 0.31 0.31 0.0 0 0 165.08 204.15
  C 165.62 196.70 164.81 189.47 165.73 182.33
  Q 166.50 176.42 165.54 170.50"
/>
<path stroke="#2d2a30" vector-effect="non-scaling-stroke" d="
  M 168.54 157.25
  Q 170.23 156.31 169.93 154.55
  Q 169.84 154.03 169.33 153.99
  Q 168.85 153.95 168.46 154.25"
/>
<path stroke="#2d2a30" vector-effect="non-scaling-stroke" d="
  M 154.77 143.49
  Q 153.92 139.42 151.72 135.91"
/>
<path stroke="#9c969b" vector-effect="non-scaling-stroke" d="
  M 134.46 335.25
  L 133.54 335.25"
/>
<path stroke="#e2a8a4" vector-effect="non-scaling-stroke" d="
  M 174.00 370.79
  L 179.21 375.25"
/>
<path stroke="#9c969b" vector-effect="non-scaling-stroke" d="
  M 270.25 352.21
  Q 270.42 352.23 270.59 352.26
  Q 270.94 352.31 270.99 352.66
  Q 271.02 352.83 271.04 353.00"
/>
<path stroke="#9c969b" vector-effect="non-scaling-stroke" d="
  M 336.79 362.00
  Q 337.32 361.20 338.15 361.58
  Q 338.61 361.78 338.72 362.28
  C 339.14 364.09 344.72 360.72 345.50 360.21"
/>
<path stroke="#9c969b" vector-effect="non-scaling-stroke" d="
  M 379.00 373.21
  Q 380.31 371.71 382.21 371.75"
/>
<path stroke="#9c969b" vector-effect="non-scaling-stroke" d="
  M 385.21 371.00
  L 385.21 369.75"
/>
<path stroke="#7c6867" vector-effect="non-scaling-stroke" d="
  M 171.39 145.45
  Q 163.43 140.96 162.39 132.18
  Q 160.82 119.09 159.39 105.98
  Q 159.22 104.43 159.24 103.27
  A 0.93 0.93 0.0 0 1 160.62 102.47
  C 165.80 105.26 169.37 105.86 176.07 106.36
  C 183.78 106.93 191.14 108.58 196.57 114.54
  Q 196.96 114.97 197.46 114.68
  L 199.95 113.22
  Q 200.49 112.91 200.13 112.40
  C 189.61 97.62 172.94 100.04 157.06 96.79
  Q 156.52 96.68 156.46 97.23
  Q 155.22 108.56 153.85 119.87
  C 152.30 132.65 154.23 148.47 169.56 151.57
  Q 170.07 151.68 170.38 151.25
  Q 171.89 149.17 172.01 146.57
  A 1.22 1.21 16.3 0 0 171.39 145.45"
/>
<path stroke="#7c6867" vector-effect="non-scaling-stroke" d="
  M 318.94 110.78
  A 1.29 1.29 0.0 0 1 320.15 112.41
  C 316.47 125.84 314.05 140.57 303.46 150.63
  Q 303.11 150.97 303.28 151.42
  L 305.80 157.99
  A 0.53 0.52 -12.7 0 0 306.33 158.32
  Q 312.78 157.68 316.19 152.82
  C 317.72 150.64 320.78 148.01 321.46 146.49
  Q 323.93 140.99 323.85 131.50
  Q 323.75 118.98 323.42 106.51
  A 0.79 0.78 86.8 0 0 322.58 105.75
  C 307.09 106.80 289.61 104.29 278.86 117.71
  Q 278.54 118.11 278.95 118.41
  L 281.65 120.43
  Q 282.08 120.76 282.46 120.37
  C 292.76 109.70 305.43 110.44 318.94 110.78"
/>
<path stroke="#785454" vector-effect="non-scaling-stroke" d="
  M 193.88 114.87
  C 187.94 110.65 184.95 109.61 177.03 108.98
  Q 169.53 108.38 162.27 106.15
  Q 161.74 105.99 161.81 106.53
  Q 162.83 115.08 163.87 123.60
  C 165.10 133.61 164.63 138.60 172.26 143.28
  A 1.21 1.21 0.0 0 0 174.02 142.68
  Q 180.14 126.70 193.89 116.57
  Q 195.05 115.71 193.88 114.87"
/>
<path stroke="#7b6565" vector-effect="non-scaling-stroke" d="
  M 164.36 325.79
  A 0.86 0.86 0.0 0 1 165.68 325.74
  C 176.78 338.04 196.71 351.79 213.76 352.15
  Q 221.54 352.31 228.28 356.01
  A 1.25 1.25 0.0 0 1 228.75 357.76
  L 227.14 360.38
  Q 226.60 361.26 227.63 361.19
  Q 248.59 359.83 267.25 351.11
  C 283.50 343.50 289.15 334.35 295.52 318.51
  A 0.57 0.55 -66.8 0 0 295.24 317.79
  C 282.11 311.84 264.21 301.36 258.63 287.33
  Q 258.44 286.85 257.93 286.78
  C 255.10 286.37 250.63 285.95 248.59 283.73
  Q 248.26 283.37 247.77 283.31
  C 223.82 280.05 201.25 269.72 187.00 249.62
  Q 183.53 244.72 183.05 240.64
  C 182.29 234.14 187.27 223.09 195.46 225.44
  Q 197.88 226.13 201.33 229.56
  Q 221.83 249.91 247.81 262.62
  C 251.73 264.54 255.38 264.78 259.63 265.33
  Q 260.15 265.39 260.48 264.98
  C 271.83 250.60 292.99 253.06 304.89 264.18
  A 0.63 0.63 0.0 0 0 305.94 263.58
  C 298.91 234.12 296.01 199.79 306.06 171.06
  Q 306.22 170.60 306.13 170.13
  C 302.60 152.55 294.20 132.54 279.67 122.03
  C 262.42 109.55 233.25 107.48 213.23 111.23
  C 178.85 117.65 166.99 157.70 166.96 188.02
  C 166.95 206.61 167.36 220.94 158.88 236.60
  Q 154.99 243.79 142.73 269.44
  C 133.26 289.26 124.42 318.19 139.05 337.96
  C 155.82 360.62 182.78 369.14 209.67 369.03
  Q 210.17 369.03 210.18 368.52
  L 210.41 354.98
  Q 210.42 354.55 210.00 354.45
  Q 185.22 348.51 167.15 330.58
  C 166.27 329.71 163.30 327.17 164.36 325.79"
/>
<path stroke="#785454" vector-effect="non-scaling-stroke" d="
  M 303.30 147.86
  C 311.21 138.56 314.19 127.20 317.16 113.94
  Q 317.27 113.49 316.80 113.49
  C 304.40 113.51 293.74 112.04 284.23 121.83
  A 0.50 0.50 0.0 0 0 284.25 122.55
  Q 295.70 133.13 301.65 147.59
  Q 302.26 149.08 303.30 147.86"
/>
<path stroke="#7c6867" vector-effect="non-scaling-stroke" d="
  M 438.61 121.45
  C 427.63 123.25 407.91 123.56 401.56 134.39
  Q 401.31 134.81 401.72 135.07
  L 403.90 136.51
  Q 404.32 136.78 404.69 136.45
  C 414.09 128.02 425.46 132.35 435.78 126.36
  A 0.82 0.81 78.5 0 1 437.00 127.17
  Q 435.37 139.90 434.12 152.61
  C 433.59 157.94 432.05 161.20 428.29 164.57
  Q 427.86 164.96 428.04 165.51
  L 429.73 170.43
  Q 429.90 170.94 430.40 170.73
  C 438.96 167.13 442.49 157.69 442.02 149.22
  Q 441.53 140.28 439.20 121.89
  Q 439.14 121.36 438.61 121.45"
/>
<path stroke="#785454" vector-effect="non-scaling-stroke" d="
  M 428.08 161.69
  C 430.21 158.97 431.36 157.77 431.76 154.11
  Q 433.04 142.21 434.41 130.31
  Q 434.47 129.79 433.98 129.96
  Q 428.57 131.80 422.92 132.29
  C 415.86 132.89 412.36 133.66 407.00 136.93
  A 0.82 0.82 0.0 0 0 407.00 138.33
  Q 420.77 146.63 426.83 161.51
  Q 427.31 162.68 428.08 161.69"
/>
<path stroke="#7c6867" vector-effect="non-scaling-stroke" d="
  M 387.93 142.71
  C 389.84 145.05 390.43 141.18 392.50 141.84
  Q 393.11 142.03 393.05 142.66
  C 392.45 149.75 380.39 143.14 387.14 139.13
  C 396.37 133.65 406.96 144.90 394.83 148.34
  C 388.28 150.20 378.46 148.95 375.49 142.00
  Q 373.47 137.27 378.01 132.97
  A 0.33 0.33 0.0 0 0 377.80 132.40
  C 362.90 131.45 346.65 133.63 333.85 140.81
  C 301.14 159.18 299.02 206.84 303.97 238.92
  Q 306.33 254.17 308.74 269.70
  A 0.47 0.47 0.0 0 0 309.56 269.93
  Q 314.85 263.78 322.41 260.63
  C 330.59 257.22 344.93 257.15 348.59 267.43
  Q 348.78 267.97 349.35 268.01
  Q 352.05 268.18 355.04 266.76
  Q 373.62 257.99 388.36 245.79
  C 394.93 240.35 401.65 227.39 411.99 236.28
  Q 419.24 242.52 413.89 250.68
  C 401.63 269.36 380.41 280.13 358.87 283.80
  C 356.53 284.20 355.22 285.39 353.20 286.44
  Q 351.41 287.37 344.53 286.86
  Q 344.00 286.82 343.69 287.25
  Q 332.75 302.60 317.54 313.73
  A 1.56 1.55 -27.6 0 0 316.98 315.50
  C 326.08 342.12 343.40 356.23 371.00 360.67
  A 0.28 0.27 78.1 0 0 371.27 360.25
  L 368.79 356.24
  A 0.57 0.56 60.2 0 1 369.00 355.44
  Q 375.93 351.77 383.28 351.66
  C 398.51 351.45 416.96 338.61 426.94 327.75
  C 427.90 326.71 429.10 326.48 428.86 328.58
  A 1.42 1.41 69.5 0 1 428.50 329.38
  Q 411.47 348.09 386.69 353.78
  Q 386.36 353.86 386.37 354.19
  L 386.51 367.06
  Q 386.51 367.44 386.90 367.42
  C 411.71 366.31 439.32 359.50 453.37 336.84
  C 470.27 309.58 447.09 268.48 436.50 242.85
  C 428.78 224.19 433.32 204.67 430.36 185.32
  Q 428.76 174.87 425.47 164.76
  C 419.72 147.09 404.10 135.73 386.15 132.72
  Q 379.92 131.68 377.49 137.29
  C 376.70 139.12 376.97 141.37 378.54 142.82
  Q 385.21 149.02 394.46 146.12
  Q 396.55 145.46 397.47 143.96
  A 2.16 2.16 0.0 0 0 396.67 140.94
  Q 392.76 138.77 388.47 140.58
  Q 386.78 141.29 387.93 142.71"
/>
<path stroke="#7c6867" vector-effect="non-scaling-stroke" d="
  M 326.56 135.47
  Q 325.15 139.02 328.06 140.53
  Q 328.47 140.75 328.90 140.59
  L 331.73 139.54
  Q 332.25 139.34 331.93 138.89
  Q 330.17 136.37 327.37 135.14
  Q 326.80 134.89 326.56 135.47"
/>
<path stroke="#785454" vector-effect="non-scaling-stroke" d="
  M 325.2755 143.3515
  A 0.98 0.60 108.1 0 0 326.1503 142.6064
  A 0.98 0.60 108.1 0 0 325.8845 141.4885
  A 0.98 0.60 108.1 0 0 325.0097 142.2336
  A 0.98 0.60 108.1 0 0 325.2755 143.3515"
/>
<path stroke="#7b6565" vector-effect="non-scaling-stroke" d="
  M 307.79 160.43
  A 0.53 0.53 0.0 0 0 307.50 161.25
  L 308.58 162.74
  A 0.53 0.53 0.0 0 0 309.45 162.72
  L 310.86 160.56
  A 0.53 0.53 0.0 0 0 310.28 159.76
  L 307.79 160.43"
/>
<path stroke="#7c6867" vector-effect="non-scaling-stroke" d="
  M 249.87 266.04
  C 230.38 256.79 213.17 245.11 198.09 229.42
  Q 195.65 226.88 192.46 227.60
  C 186.90 228.86 184.50 236.61 185.47 241.36
  Q 186.26 245.18 190.30 250.43
  C 204.50 268.88 225.74 277.95 248.33 281.28
  Q 249.09 281.39 249.04 280.62
  Q 248.59 273.62 250.24 266.81
  Q 250.37 266.27 249.87 266.04"
/>
<path stroke="#7c6867" vector-effect="non-scaling-stroke" d="
  M 398.69 238.94
  C 387.80 251.63 371.25 261.61 355.66 269.05
  Q 355.15 269.29 355.19 269.85
  L 356.01 281.83
  Q 356.04 282.33 356.54 282.24
  C 378.68 278.21 399.65 268.07 412.32 248.73
  C 415.98 243.15 412.55 237.93 407.00 236.07
  C 403.20 234.80 401.10 236.13 398.69 238.94"
/>
<path stroke="#733c39" vector-effect="non-scaling-stroke" d="
  M 268.65 285.16
  L 261.44 286.94
  A 0.58 0.58 0.0 0 0 261.07 287.78
  C 268.68 301.82 286.45 312.24 300.72 317.58
  C 303.38 318.57 306.50 318.60 309.11 316.91
  Q 325.40 306.36 338.70 290.44
  Q 339.96 288.93 340.64 287.76
  Q 340.93 287.25 340.52 286.84
  L 338.62 284.95
  Q 338.02 284.34 338.55 283.67
  L 341.52 279.91
  A 1.22 1.21 48.9 0 0 341.61 278.52
  L 338.30 273.01
  Q 337.92 272.39 338.58 272.09
  L 345.68 268.86
  A 1.37 1.37 0.0 0 0 346.16 266.74
  C 335.48 253.85 316.75 263.28 309.17 274.44
  A 0.56 0.56 0.0 0 1 308.18 274.33
  C 300.75 255.03 276.68 251.98 262.47 265.57
  A 0.42 0.41 36.8 0 0 262.57 266.24
  L 268.30 269.17
  A 1.46 1.46 0.0 0 1 268.85 271.28
  L 264.92 277.14
  Q 264.70 277.47 264.92 277.79
  L 269.07 284.07
  A 0.72 0.72 0.0 0 1 268.65 285.16"
/>
<path stroke="#736f6f" vector-effect="non-scaling-stroke" d="
  M 302.43 326.31
  C 303.98 327.51 313.92 322.10 315.86 321.10
  Q 316.35 320.85 316.20 320.31
  L 315.14 316.50
  Q 315.01 316.02 314.57 316.27
  L 306.16 321.07
  Q 305.68 321.34 305.15 321.18
  L 298.47 319.15
  A 1.08 1.08 0.0 0 0 297.27 320.79
  Q 299.54 324.08 302.43 326.31"
/>
<path stroke="#7b6565" vector-effect="non-scaling-stroke" d="
  M 305.66 329.44
  C 305.64 329.66 314.65 335.95 315.60 336.60
  C 319.22 339.05 322.33 339.98 326.47 340.70
  A 0.28 0.28 0.0 0 0 326.76 340.29
  L 317.14 323.39
  Q 316.93 323.02 316.55 323.21
  L 305.89 328.34
  A 1.20 0.14 -85.0 0 0 305.66 329.44"
/>
<path stroke="#7b6565" vector-effect="non-scaling-stroke" d="
  M 285.84 342.50
  Q 299.45 350.28 314.48 354.86
  A 0.71 0.71 0.0 0 0 315.39 354.29
  Q 316.39 347.88 319.03 341.94
  A 0.77 0.77 0.0 0 0 318.71 340.95
  Q 306.42 334.02 296.69 323.82
  A 0.58 0.58 0.0 0 0 295.73 324.02
  Q 292.00 334.14 284.74 342.07
  Q 284.65 342.18 284.79 342.20
  L 285.05 342.23
  Q 285.47 342.29 285.84 342.50"
/>
<path stroke="#7b6565" vector-effect="non-scaling-stroke" d="
  M 285.68 148.63
  Q 281.76 156.87 273.14 152.59
  Q 272.33 152.19 272.26 153.09
  L 272.13 154.71
  Q 272.09 155.31 272.69 155.30
  Q 276.86 155.22 276.66 159.34
  Q 276.60 160.65 277.61 159.82
  Q 278.96 158.72 278.41 156.89
  Q 278.21 156.21 278.92 156.14
  L 281.77 155.85
  Q 282.39 155.78 282.60 156.37
  L 283.36 158.56
  A 0.89 0.88 64.3 0 0 284.66 159.02
  C 286.83 157.70 281.89 153.44 287.34 151.96
  Q 287.88 151.82 288.27 152.21
  L 289.76 153.70
  Q 290.16 154.10 290.71 154.00
  Q 291.49 153.85 291.33 152.56
  Q 291.26 152.01 290.83 151.64
  L 286.97 148.36
  Q 286.14 147.65 285.68 148.63"
/>
<path stroke="#7b6565" vector-effect="non-scaling-stroke" d="
  M 219.44 157.18
  L 219.64 159.58
  Q 219.69 160.25 220.33 160.05
  L 221.12 159.80
  Q 221.65 159.63 221.69 159.08
  Q 221.95 155.65 225.04 155.15
  Q 225.54 155.07 225.69 154.60
  Q 226.02 153.53 225.54 152.76
  Q 225.19 152.23 224.64 152.54
  Q 216.19 157.38 211.79 149.61
  A 0.78 0.78 0.0 0 0 210.54 149.47
  L 206.67 153.76
  Q 206.29 154.19 206.54 154.71
  C 207.55 156.73 209.22 153.98 210.21 153.25
  Q 210.59 152.96 211.02 153.17
  Q 214.77 154.99 212.95 158.61
  Q 212.69 159.13 213.13 159.52
  L 213.70 160.01
  Q 214.42 160.63 214.75 159.74
  L 215.45 157.87
  Q 215.62 157.42 216.00 157.13
  Q 217.27 156.15 218.95 156.60
  Q 219.41 156.72 219.44 157.18"
/>
<path stroke="#7b6565" vector-effect="non-scaling-stroke" d="
  M 265.49 156.53
  C 253.08 153.39 217.33 151.27 216.45 171.77
  C 215.85 185.75 228.24 194.79 240.73 196.88
  C 254.95 199.28 273.39 194.00 279.03 179.55
  C 283.51 168.09 276.32 159.28 265.49 156.53"
/>
<path stroke="#7b6565" vector-effect="non-scaling-stroke" d="
  M 222.77 193.14
  Q 213.85 191.38 213.32 182.21
  Q 213.28 181.45 212.56 181.72
  L 211.37 182.16
  Q 210.93 182.32 210.98 182.80
  Q 212.14 193.35 222.55 195.36
  Q 223.27 195.49 223.27 194.76
  L 223.27 193.75
  A 0.62 0.62 0.0 0 0 222.77 193.14"
/>
<path stroke="#7b6565" vector-effect="non-scaling-stroke" d="
  M 232.71 297.13
  C 237.00 298.44 238.03 290.27 232.76 290.01
  A 0.75 0.75 0.0 0 0 232.19 291.29
  L 234.44 293.58
  Q 234.98 294.13 234.25 294.37
  C 233.23 294.72 230.52 294.77 232.20 296.79
  Q 232.41 297.03 232.71 297.13"
/>
<path stroke="#7c6867" vector-effect="non-scaling-stroke" d="
  M 335.78 175.02
  L 338.58 173.88
  Q 339.00 173.71 339.00 173.26
  L 339.00 172.80
  Q 339.00 172.17 338.38 172.27
  C 332.94 173.11 328.89 173.99 326.23 167.93
  Q 326.01 167.43 325.56 167.74
  C 324.30 168.59 320.18 171.62 321.90 173.44
  Q 322.25 173.81 322.63 173.46
  L 324.48 171.72
  Q 324.91 171.32 325.43 171.59
  Q 328.57 173.28 326.70 175.61
  Q 326.43 175.95 326.44 176.38
  Q 326.50 178.06 328.07 177.69
  Q 328.58 177.57 328.82 177.11
  L 329.62 175.52
  Q 329.90 174.98 330.51 175.00
  L 331.82 175.03
  Q 332.33 175.04 332.44 175.55
  L 332.95 177.99
  Q 333.05 178.46 333.53 178.54
  C 334.44 178.69 334.89 176.70 335.13 175.77
  Q 335.26 175.23 335.78 175.02"
/>
<path stroke="#7c6867" vector-effect="non-scaling-stroke" d="
  M 389.10 175.52
  L 391.16 175.49
  Q 391.86 175.48 392.10 176.13
  L 392.96 178.44
  Q 393.21 179.10 393.81 178.72
  L 394.27 178.43
  Q 394.85 178.06 394.55 177.44
  Q 393.04 174.25 396.19 172.67
  Q 396.76 172.38 397.21 172.83
  L 399.08 174.71
  A 0.69 0.68 -67.6 0 0 400.25 174.22
  L 400.25 173.34
  Q 400.25 172.84 399.90 172.48
  L 396.60 169.01
  Q 396.25 168.65 395.88 168.99
  C 394.60 170.21 394.18 171.80 392.70 172.60
  C 388.97 174.64 386.64 172.38 382.91 172.49
  A 0.63 0.62 57.6 0 0 382.65 173.67
  L 386.14 175.45
  Q 386.61 175.69 386.58 176.22
  L 386.48 178.00
  Q 386.45 178.48 386.89 178.70
  C 388.56 179.52 388.65 177.16 388.50 176.25
  Q 388.38 175.53 389.10 175.52"
/>
<path stroke="#7c6867" vector-effect="non-scaling-stroke" d="
  M 336.36 181.37
  C 329.37 189.29 336.05 201.99 343.17 206.60
  Q 360.18 217.63 379.44 208.93
  C 386.13 205.90 391.17 199.13 391.48 191.72
  C 392.21 174.51 368.20 172.66 356.31 173.61
  C 347.94 174.28 341.66 175.37 336.36 181.37"
/>
<path stroke="#f2cac8" vector-effect="non-scaling-stroke" d="
  M 419.31 189.71
  A 11.78 11.78 0.0 0 0 407.53 177.93
  A 11.78 11.78 0.0 0 0 395.75 189.71
  A 11.78 11.78 0.0 0 0 407.53 201.49
  A 11.78 11.78 0.0 0 0 419.31 189.71"
/>
<path stroke="#f2cac8" vector-effect="non-scaling-stroke" d="
  M 330.8295 190.1728
  A 10.84 10.62 4.3 0 0 320.8163 178.7699
  A 10.84 10.62 4.3 0 0 309.2105 188.5472
  A 10.84 10.62 4.3 0 0 319.2237 199.9501
  A 10.84 10.62 4.3 0 0 330.8295 190.1728"
/>
<path stroke="#7c6867" vector-effect="non-scaling-stroke" d="
  M 394.30 198.85
  Q 393.50 207.05 385.46 208.62
  Q 384.85 208.73 384.99 209.34
  L 385.22 210.33
  Q 385.37 210.99 386.04 210.85
  Q 394.85 209.02 396.36 200.18
  C 396.56 198.98 395.68 198.15 394.47 198.63
  A 0.26 0.25 -9.3 0 0 394.30 198.85"
/>
<path stroke="#7c6867" vector-effect="non-scaling-stroke" d="
  M 365.30 298.06
  Q 366.26 297.35 366.29 296.16
  A 0.79 0.79 0.0 0 0 365.09 295.46
  Q 363.43 296.44 362.76 298.18
  Q 362.57 298.68 362.83 299.14
  C 363.64 300.56 365.66 302.55 366.66 300.45
  Q 366.89 299.95 366.43 299.64
  L 365.32 298.88
  Q 364.73 298.49 365.30 298.06"
/>
<path stroke="#785454" vector-effect="non-scaling-stroke" d="
  M 276.04 166.16
  C 267.94 153.20 227.03 153.14 220.27 166.71
  C 214.85 177.60 223.86 188.65 233.58 192.42
  Q 250.33 198.92 266.01 190.50
  C 274.42 185.99 281.60 175.04 276.04 166.16"
/>
<path stroke="#785454" vector-effect="non-scaling-stroke" d="
  M 265.83 170.91
  A 3.41 3.41 0.0 0 0 262.42 167.50
  A 3.41 3.41 0.0 0 0 259.01 170.91
  A 3.41 3.41 0.0 0 0 262.42 174.32
  A 3.41 3.41 0.0 0 0 265.83 170.91"
/>
<path stroke="#785454" vector-effect="non-scaling-stroke" d="
  M 236.51 171.38
  A 3.34 3.34 0.0 0 0 233.17 168.04
  A 3.34 3.34 0.0 0 0 229.83 171.38
  A 3.34 3.34 0.0 0 0 233.17 174.72
  A 3.34 3.34 0.0 0 0 236.51 171.38"
/>
<path stroke="#785454" vector-effect="non-scaling-stroke" d="
  M 349.23 176.58
  C 342.53 177.94 334.24 183.66 335.77 191.51
  C 340.08 213.65 375.36 216.42 386.78 199.25
  C 393.65 188.93 386.85 180.15 376.30 177.36
  Q 362.82 173.81 349.23 176.58"
/>
<path stroke="#785454" vector-effect="non-scaling-stroke" d="
  M 353.01 188.04
  A 3.17 3.17 0.0 0 0 349.84 184.87
  A 3.17 3.17 0.0 0 0 346.67 188.04
  A 3.17 3.17 0.0 0 0 349.84 191.21
  A 3.17 3.17 0.0 0 0 353.01 188.04"
/>
<path stroke="#785454" vector-effect="non-scaling-stroke" d="
  M 379.59 189.44
  A 3.19 3.19 0.0 0 0 376.40 186.25
  A 3.19 3.19 0.0 0 0 373.21 189.44
  A 3.19 3.19 0.0 0 0 376.40 192.63
  A 3.19 3.19 0.0 0 0 379.59 189.44"
/>
</g>
<path fill="#e2746e" d="
  M 333.63 10.55
  C 334.83 6.85 340.49 5.27 340.22 10.71
  Q 340.00 15.13 337.75 19.05
  C 335.66 22.66 328.22 20.25 325.93 18.35
  C 323.50 16.35 324.94 12.32 327.68 11.23
  C 329.33 10.56 331.03 10.85 332.89 11.04
  Q 333.46 11.09 333.63 10.55
  Z"
/>
<path fill="#e2746e" d="
  M 343.51 32.52
  C 350.74 31.52 353.42 38.59 347.37 42.44
  C 344.22 44.45 335.68 45.64 335.02 40.93
  C 334.53 37.44 334.38 28.89 338.39 27.07
  A 2.31 2.31 0.0 0 1 341.52 28.40
  L 342.85 32.12
  Q 343.02 32.59 343.51 32.52
  Z"
/>
<path fill="#e2746e" d="
  M 317.71 63.00
  C 318.60 56.62 324.77 50.59 331.71 51.51
  Q 334.24 51.84 335.17 54.55
  C 338.17 63.33 333.75 74.46 329.63 83.16
  Q 327.62 87.40 323.51 87.55
  Q 316.28 87.83 309.11 87.02
  C 300.01 85.99 289.20 78.11 295.80 68.08
  C 300.02 61.64 309.67 58.70 316.38 63.56
  A 0.84 0.84 0.0 0 0 317.71 63.00
  Z"
/>
<path fill="#e2746e" d="
  M 354.21 76.75
  C 363.05 73.66 370.16 79.78 366.44 88.20
  C 362.80 96.44 349.66 97.43 342.69 94.78
  C 338.40 93.14 339.24 67.80 346.66 66.69
  C 351.74 65.93 353.96 72.40 353.73 76.38
  A 0.36 0.36 0.0 0 0 354.21 76.75
  Z"
/>
<path fill="#56515b" d="
  M 185.83 99.26
  L 155.79 95.10
  Q 155.22 95.02 155.08 95.59
  C 153.88 100.66 153.58 106.71 152.90 111.04
  Q 151.22 121.72 151.82 132.58
  Q 151.85 133.07 151.67 133.53
  L 151.29 134.50
  C 150.94 131.42 150.43 128.63 150.73 125.49
  Q 151.35 119.19 151.68 112.87
  C 151.81 110.34 152.84 107.98 152.77 105.42
  Q 152.62 99.96 154.45 94.81
  A 1.15 1.14 -77.5 0 1 155.63 94.05
  Q 160.41 94.49 165.08 95.29
  C 171.21 96.33 178.95 96.66 185.83 99.26
  Z"
/>
<path fill="#040304" d="
  M 185.83 99.26
  Q 195.37 101.87 201.29 110.00
  Q 200.93 111.76 202.20 112.61
  Q 202.63 112.89 203.08 112.63
  C 204.91 111.55 205.96 111.07 208.29 110.85
  Q 210.80 110.61 212.75 108.96
  L 215.25 108.54
  Q 219.56 109.52 223.50 107.54
  L 234.25 107.54
  Q 251.11 108.73 267.27 113.64
  Q 267.49 113.70 267.61 113.51
  L 267.75 113.29
  L 269.29 113.75
  L 269.45 114.20
  Q 269.54 114.48 269.80 114.60
  L 275.08 117.01
  A 2.66 2.66 0.0 0 0 278.36 116.14
  C 288.44 102.12 308.69 105.55 323.33 104.17
  Q 323.83 104.13 324.13 103.72
  L 324.50 103.21
  Q 326.21 103.93 326.21 105.82
  Q 326.24 118.57 326.34 131.38
  A 0.97 0.97 0.0 0 0 326.98 132.29
  Q 330.59 133.64 333.30 136.67
  L 334.20 138.15
  Q 334.37 138.44 334.68 138.31
  L 341.20 135.53
  Q 341.56 135.37 341.41 135.02
  Q 341.35 134.88 341.25 134.79
  L 345.48 133.64
  Q 351.64 133.65 357.13 131.15
  Q 359.14 130.36 361.50 130.54
  C 368.99 131.57 377.43 130.81 385.01 130.44
  Q 389.11 130.15 392.66 131.92
  Q 395.45 133.87 398.88 134.07
  Q 399.34 134.10 399.65 133.76
  Q 410.00 122.32 425.41 121.97
  C 430.36 121.85 434.73 119.81 439.92 119.72
  Q 440.57 119.71 440.51 120.36
  Q 440.32 122.52 441.79 122.50
  L 442.96 133.00
  Q 441.83 135.60 442.89 138.19
  Q 443.10 138.71 443.38 138.22
  Q 443.45 138.08 443.54 138.00
  C 444.26 149.98 446.22 167.86 431.25 172.79
  L 430.48 172.70
  Q 430.08 172.66 430.05 173.05
  Q 429.89 175.16 431.39 176.57
  C 431.90 180.11 432.87 183.32 432.99 186.94
  C 433.17 192.38 434.25 197.87 434.28 203.03
  Q 434.36 214.78 434.72 226.53
  Q 434.84 230.36 436.00 233.84
  C 443.31 255.65 455.33 276.87 459.96 297.75
  C 458.39 298.37 460.15 302.51 461.76 299.79
  Q 465.77 297.35 470.54 296.38
  Q 471.07 296.27 471.31 295.79
  Q 474.01 290.44 479.61 288.25
  Q 480.07 288.07 480.25 287.61
  L 482.24 282.48
  Q 482.42 282.00 482.21 281.54
  Q 478.05 272.35 486.14 266.85
  Q 487.41 265.99 488.51 267.22
  Q 488.86 267.61 488.53 268.02
  C 485.21 272.08 482.04 273.17 484.28 279.38
  Q 484.47 279.90 485.01 279.74
  C 486.86 279.19 488.95 277.99 490.78 278.42
  C 497.78 280.07 494.78 290.31 486.62 285.85
  C 485.34 285.15 483.62 284.82 483.31 286.66
  A 0.99 0.98 13.1 0 0 484.00 287.76
  Q 489.34 289.34 491.72 292.47
  C 494.48 296.08 492.66 302.40 487.31 301.20
  C 482.39 300.09 481.60 296.39 480.23 292.30
  A 1.21 1.21 0.0 0 0 478.42 291.67
  Q 475.70 293.42 474.00 296.11
  A 1.23 1.22 -61.7 0 0 474.53 297.88
  C 478.84 299.83 485.35 306.42 482.81 311.67
  C 481.56 314.26 478.94 315.09 476.24 313.98
  C 470.01 311.43 469.60 306.56 470.02 300.63
  A 1.46 1.46 0.0 0 0 467.97 299.19
  C 464.97 300.52 460.10 302.58 461.00 306.70
  Q 460.02 310.70 461.89 314.31
  L 460.71 324.25
  L 460.28 324.58
  Q 459.89 324.87 459.80 325.35
  C 454.63 353.65 422.14 367.52 395.99 368.73
  Q 393.75 368.84 385.21 369.75
  Q 377.66 371.49 369.90 369.33
  A 1.49 1.49 0.0 0 1 369.15 366.95
  L 371.40 364.20
  Q 372.38 362.99 370.90 362.53
  Q 369.06 361.96 367.13 362.25
  Q 366.67 362.32 366.29 362.05
  Q 364.59 360.87 362.75 361.46
  Q 348.61 358.15 336.56 349.36
  Q 336.01 348.96 335.54 349.45
  L 331.46 353.71
  Q 331.03 354.16 331.30 354.73
  L 332.50 357.21
  C 331.83 358.92 334.51 362.50 330.19 362.07
  Q 323.71 361.42 317.59 359.30
  L 292.18 348.82
  Q 291.71 348.63 291.21 348.69
  Q 285.26 349.39 279.18 348.37
  Q 274.18 348.82 270.25 352.21
  Q 260.24 357.23 249.32 359.72
  C 248.65 359.88 246.22 359.88 247.74 361.18
  Q 247.41 361.29 247.04 361.25
  Q 246.81 360.70 246.26 360.81
  Q 236.36 362.88 226.20 363.77
  A 0.60 0.60 0.0 0 0 225.88 364.84
  Q 228.24 366.68 229.64 369.37
  A 1.36 1.36 0.0 0 1 228.87 371.28
  Q 220.38 374.16 211.98 372.09
  C 206.68 370.78 201.23 370.90 195.95 370.46
  Q 186.27 369.32 176.76 366.98
  Q 169.70 365.24 163.70 361.52
  Q 144.98 352.87 134.46 335.25
  Q 134.88 332.90 132.96 332.75
  Q 130.35 326.08 129.29 319.00
  L 129.50 318.86
  Q 129.81 318.64 129.80 318.25
  L 129.54 304.24
  L 131.96 290.40
  Q 132.06 289.87 131.70 289.46
  Q 129.44 286.84 126.25 285.50
  A 0.92 0.91 -76.6 0 0 124.98 286.29
  C 124.54 292.19 121.52 298.36 115.24 299.17
  C 109.57 299.90 106.29 295.56 109.19 290.44
  Q 112.82 284.02 120.62 282.64
  A 1.70 1.69 -15.5 0 0 121.91 280.37
  Q 120.53 276.74 117.65 274.30
  A 0.84 0.84 0.0 0 0 116.34 274.61
  C 114.46 279.01 111.59 282.47 106.40 282.43
  C 102.91 282.40 100.87 279.91 101.54 276.48
  C 102.72 270.36 107.91 269.28 113.69 269.54
  Q 114.19 269.56 114.35 269.09
  Q 114.85 267.65 114.32 266.15
  Q 113.95 265.08 112.96 265.65
  C 102.89 271.39 99.78 256.91 108.80 257.42
  C 110.81 257.54 112.72 258.63 114.27 259.89
  A 1.65 1.65 0.0 0 0 116.87 259.14
  Q 119.13 252.52 114.60 247.48
  Q 114.25 247.08 114.53 246.63
  L 115.08 245.76
  Q 115.49 245.11 116.08 245.61
  C 122.86 251.33 121.16 256.68 117.26 263.41
  Q 117.04 263.79 117.10 264.22
  L 118.02 270.89
  Q 118.09 271.40 118.51 271.69
  Q 123.45 275.05 124.66 280.91
  A 2.12 2.12 0.0 0 0 125.71 282.33
  L 132.36 285.98
  A 0.68 0.68 0.0 0 0 133.33 285.61
  C 140.60 266.06 152.35 245.26 159.22 230.20
  Q 160.57 227.24 162.52 221.02
  C 164.39 215.05 164.06 208.93 164.04 202.75
  L 164.47 204.22
  A 0.31 0.31 0.0 0 0 165.08 204.15
  C 165.62 196.70 164.81 189.47 165.73 182.33
  Q 166.50 176.42 165.54 170.50
  L 168.54 157.25
  Q 170.23 156.31 169.93 154.55
  Q 169.84 154.03 169.33 153.99
  Q 168.85 153.95 168.46 154.25
  C 162.90 152.21 157.13 149.30 154.77 143.49
  Q 153.92 139.42 151.72 135.91
  L 151.29 134.50
  L 151.67 133.53
  Q 151.85 133.07 151.82 132.58
  Q 151.22 121.72 152.90 111.04
  C 153.58 106.71 153.88 100.66 155.08 95.59
  Q 155.22 95.02 155.79 95.10
  L 185.83 99.26
  Z
  M 171.39 145.45
  Q 163.43 140.96 162.39 132.18
  Q 160.82 119.09 159.39 105.98
  Q 159.22 104.43 159.24 103.27
  A 0.93 0.93 0.0 0 1 160.62 102.47
  C 165.80 105.26 169.37 105.86 176.07 106.36
  C 183.78 106.93 191.14 108.58 196.57 114.54
  Q 196.96 114.97 197.46 114.68
  L 199.95 113.22
  Q 200.49 112.91 200.13 112.40
  C 189.61 97.62 172.94 100.04 157.06 96.79
  Q 156.52 96.68 156.46 97.23
  Q 155.22 108.56 153.85 119.87
  C 152.30 132.65 154.23 148.47 169.56 151.57
  Q 170.07 151.68 170.38 151.25
  Q 171.89 149.17 172.01 146.57
  A 1.22 1.21 16.3 0 0 171.39 145.45
  Z
  M 318.94 110.78
  A 1.29 1.29 0.0 0 1 320.15 112.41
  C 316.47 125.84 314.05 140.57 303.46 150.63
  Q 303.11 150.97 303.28 151.42
  L 305.80 157.99
  A 0.53 0.52 -12.7 0 0 306.33 158.32
  Q 312.78 157.68 316.19 152.82
  C 317.72 150.64 320.78 148.01 321.46 146.49
  Q 323.93 140.99 323.85 131.50
  Q 323.75 118.98 323.42 106.51
  A 0.79 0.78 86.8 0 0 322.58 105.75
  C 307.09 106.80 289.61 104.29 278.86 117.71
  Q 278.54 118.11 278.95 118.41
  L 281.65 120.43
  Q 282.08 120.76 282.46 120.37
  C 292.76 109.70 305.43 110.44 318.94 110.78
  Z
  M 193.88 114.87
  C 187.94 110.65 184.95 109.61 177.03 108.98
  Q 169.53 108.38 162.27 106.15
  Q 161.74 105.99 161.81 106.53
  Q 162.83 115.08 163.87 123.60
  C 165.10 133.61 164.63 138.60 172.26 143.28
  A 1.21 1.21 0.0 0 0 174.02 142.68
  Q 180.14 126.70 193.89 116.57
  Q 195.05 115.71 193.88 114.87
  Z
  M 164.36 325.79
  A 0.86 0.86 0.0 0 1 165.68 325.74
  C 176.78 338.04 196.71 351.79 213.76 352.15
  Q 221.54 352.31 228.28 356.01
  A 1.25 1.25 0.0 0 1 228.75 357.76
  L 227.14 360.38
  Q 226.60 361.26 227.63 361.19
  Q 248.59 359.83 267.25 351.11
  C 283.50 343.50 289.15 334.35 295.52 318.51
  A 0.57 0.55 -66.8 0 0 295.24 317.79
  C 282.11 311.84 264.21 301.36 258.63 287.33
  Q 258.44 286.85 257.93 286.78
  C 255.10 286.37 250.63 285.95 248.59 283.73
  Q 248.26 283.37 247.77 283.31
  C 223.82 280.05 201.25 269.72 187.00 249.62
  Q 183.53 244.72 183.05 240.64
  C 182.29 234.14 187.27 223.09 195.46 225.44
  Q 197.88 226.13 201.33 229.56
  Q 221.83 249.91 247.81 262.62
  C 251.73 264.54 255.38 264.78 259.63 265.33
  Q 260.15 265.39 260.48 264.98
  C 271.83 250.60 292.99 253.06 304.89 264.18
  A 0.63 0.63 0.0 0 0 305.94 263.58
  C 298.91 234.12 296.01 199.79 306.06 171.06
  Q 306.22 170.60 306.13 170.13
  C 302.60 152.55 294.20 132.54 279.67 122.03
  C 262.42 109.55 233.25 107.48 213.23 111.23
  C 178.85 117.65 166.99 157.70 166.96 188.02
  C 166.95 206.61 167.36 220.94 158.88 236.60
  Q 154.99 243.79 142.73 269.44
  C 133.26 289.26 124.42 318.19 139.05 337.96
  C 155.82 360.62 182.78 369.14 209.67 369.03
  Q 210.17 369.03 210.18 368.52
  L 210.41 354.98
  Q 210.42 354.55 210.00 354.45
  Q 185.22 348.51 167.15 330.58
  C 166.27 329.71 163.30 327.17 164.36 325.79
  Z
  M 303.30 147.86
  C 311.21 138.56 314.19 127.20 317.16 113.94
  Q 317.27 113.49 316.80 113.49
  C 304.40 113.51 293.74 112.04 284.23 121.83
  A 0.50 0.50 0.0 0 0 284.25 122.55
  Q 295.70 133.13 301.65 147.59
  Q 302.26 149.08 303.30 147.86
  Z
  M 438.61 121.45
  C 427.63 123.25 407.91 123.56 401.56 134.39
  Q 401.31 134.81 401.72 135.07
  L 403.90 136.51
  Q 404.32 136.78 404.69 136.45
  C 414.09 128.02 425.46 132.35 435.78 126.36
  A 0.82 0.81 78.5 0 1 437.00 127.17
  Q 435.37 139.90 434.12 152.61
  C 433.59 157.94 432.05 161.20 428.29 164.57
  Q 427.86 164.96 428.04 165.51
  L 429.73 170.43
  Q 429.90 170.94 430.40 170.73
  C 438.96 167.13 442.49 157.69 442.02 149.22
  Q 441.53 140.28 439.20 121.89
  Q 439.14 121.36 438.61 121.45
  Z
  M 428.08 161.69
  C 430.21 158.97 431.36 157.77 431.76 154.11
  Q 433.04 142.21 434.41 130.31
  Q 434.47 129.79 433.98 129.96
  Q 428.57 131.80 422.92 132.29
  C 415.86 132.89 412.36 133.66 407.00 136.93
  A 0.82 0.82 0.0 0 0 407.00 138.33
  Q 420.77 146.63 426.83 161.51
  Q 427.31 162.68 428.08 161.69
  Z
  M 387.93 142.71
  C 389.84 145.05 390.43 141.18 392.50 141.84
  Q 393.11 142.03 393.05 142.66
  C 392.45 149.75 380.39 143.14 387.14 139.13
  C 396.37 133.65 406.96 144.90 394.83 148.34
  C 388.28 150.20 378.46 148.95 375.49 142.00
  Q 373.47 137.27 378.01 132.97
  A 0.33 0.33 0.0 0 0 377.80 132.40
  C 362.90 131.45 346.65 133.63 333.85 140.81
  C 301.14 159.18 299.02 206.84 303.97 238.92
  Q 306.33 254.17 308.74 269.70
  A 0.47 0.47 0.0 0 0 309.56 269.93
  Q 314.85 263.78 322.41 260.63
  C 330.59 257.22 344.93 257.15 348.59 267.43
  Q 348.78 267.97 349.35 268.01
  Q 352.05 268.18 355.04 266.76
  Q 373.62 257.99 388.36 245.79
  C 394.93 240.35 401.65 227.39 411.99 236.28
  Q 419.24 242.52 413.89 250.68
  C 401.63 269.36 380.41 280.13 358.87 283.80
  C 356.53 284.20 355.22 285.39 353.20 286.44
  Q 351.41 287.37 344.53 286.86
  Q 344.00 286.82 343.69 287.25
  Q 332.75 302.60 317.54 313.73
  A 1.56 1.55 -27.6 0 0 316.98 315.50
  C 326.08 342.12 343.40 356.23 371.00 360.67
  A 0.28 0.27 78.1 0 0 371.27 360.25
  L 368.79 356.24
  A 0.57 0.56 60.2 0 1 369.00 355.44
  Q 375.93 351.77 383.28 351.66
  C 398.51 351.45 416.96 338.61 426.94 327.75
  C 427.90 326.71 429.10 326.48 428.86 328.58
  A 1.42 1.41 69.5 0 1 428.50 329.38
  Q 411.47 348.09 386.69 353.78
  Q 386.36 353.86 386.37 354.19
  L 386.51 367.06
  Q 386.51 367.44 386.90 367.42
  C 411.71 366.31 439.32 359.50 453.37 336.84
  C 470.27 309.58 447.09 268.48 436.50 242.85
  C 428.78 224.19 433.32 204.67 430.36 185.32
  Q 428.76 174.87 425.47 164.76
  C 419.72 147.09 404.10 135.73 386.15 132.72
  Q 379.92 131.68 377.49 137.29
  C 376.70 139.12 376.97 141.37 378.54 142.82
  Q 385.21 149.02 394.46 146.12
  Q 396.55 145.46 397.47 143.96
  A 2.16 2.16 0.0 0 0 396.67 140.94
  Q 392.76 138.77 388.47 140.58
  Q 386.78 141.29 387.93 142.71
  Z
  M 326.56 135.47
  Q 325.15 139.02 328.06 140.53
  Q 328.47 140.75 328.90 140.59
  L 331.73 139.54
  Q 332.25 139.34 331.93 138.89
  Q 330.17 136.37 327.37 135.14
  Q 326.80 134.89 326.56 135.47
  Z
  M 325.2755 143.3515
  A 0.98 0.60 108.1 0 0 326.1503 142.6064
  A 0.98 0.60 108.1 0 0 325.8845 141.4885
  A 0.98 0.60 108.1 0 0 325.0097 142.2336
  A 0.98 0.60 108.1 0 0 325.2755 143.3515
  Z
  M 307.79 160.43
  A 0.53 0.53 0.0 0 0 307.50 161.25
  L 308.58 162.74
  A 0.53 0.53 0.0 0 0 309.45 162.72
  L 310.86 160.56
  A 0.53 0.53 0.0 0 0 310.28 159.76
  L 307.79 160.43
  Z
  M 249.87 266.04
  C 230.38 256.79 213.17 245.11 198.09 229.42
  Q 195.65 226.88 192.46 227.60
  C 186.90 228.86 184.50 236.61 185.47 241.36
  Q 186.26 245.18 190.30 250.43
  C 204.50 268.88 225.74 277.95 248.33 281.28
  Q 249.09 281.39 249.04 280.62
  Q 248.59 273.62 250.24 266.81
  Q 250.37 266.27 249.87 266.04
  Z
  M 398.69 238.94
  C 387.80 251.63 371.25 261.61 355.66 269.05
  Q 355.15 269.29 355.19 269.85
  L 356.01 281.83
  Q 356.04 282.33 356.54 282.24
  C 378.68 278.21 399.65 268.07 412.32 248.73
  C 415.98 243.15 412.55 237.93 407.00 236.07
  C 403.20 234.80 401.10 236.13 398.69 238.94
  Z
  M 268.65 285.16
  L 261.44 286.94
  A 0.58 0.58 0.0 0 0 261.07 287.78
  C 268.68 301.82 286.45 312.24 300.72 317.58
  C 303.38 318.57 306.50 318.60 309.11 316.91
  Q 325.40 306.36 338.70 290.44
  Q 339.96 288.93 340.64 287.76
  Q 340.93 287.25 340.52 286.84
  L 338.62 284.95
  Q 338.02 284.34 338.55 283.67
  L 341.52 279.91
  A 1.22 1.21 48.9 0 0 341.61 278.52
  L 338.30 273.01
  Q 337.92 272.39 338.58 272.09
  L 345.68 268.86
  A 1.37 1.37 0.0 0 0 346.16 266.74
  C 335.48 253.85 316.75 263.28 309.17 274.44
  A 0.56 0.56 0.0 0 1 308.18 274.33
  C 300.75 255.03 276.68 251.98 262.47 265.57
  A 0.42 0.41 36.8 0 0 262.57 266.24
  L 268.30 269.17
  A 1.46 1.46 0.0 0 1 268.85 271.28
  L 264.92 277.14
  Q 264.70 277.47 264.92 277.79
  L 269.07 284.07
  A 0.72 0.72 0.0 0 1 268.65 285.16
  Z
  M 112.2501 262.5930
  A 3.15 1.80 7.9 0 0 109.3774 260.3771
  A 3.15 1.80 7.9 0 0 106.0099 261.7270
  A 3.15 1.80 7.9 0 0 108.8826 263.9429
  A 3.15 1.80 7.9 0 0 112.2501 262.5930
  Z
  M 113.6537 272.5396
  A 5.75 3.24 -33.7 0 0 107.0723 273.0345
  A 5.75 3.24 -33.7 0 0 104.0863 278.9204
  A 5.75 3.24 -33.7 0 0 110.6677 278.4255
  A 5.75 3.24 -33.7 0 0 113.6537 272.5396
  Z
  M 491.7942 283.0453
  A 1.46 1.46 0.0 0 0 490.9445 281.1635
  L 489.4291 280.5908
  A 1.46 1.46 0.0 0 0 487.5472 281.4405
  L 487.4058 281.8147
  A 1.46 1.46 0.0 0 0 488.2555 283.6965
  L 489.7709 284.2692
  A 1.46 1.46 0.0 0 0 491.6528 283.4195
  L 491.7942 283.0453
  Z
  M 110.86 295.04
  C 117.06 299.94 123.05 291.65 122.10 286.02
  A 1.37 1.37 0.0 0 0 120.35 284.94
  C 116.27 286.20 110.62 289.38 110.48 294.23
  Q 110.46 294.73 110.86 295.04
  Z
  M 482.35 291.88
  C 483.13 294.67 485.96 300.98 489.63 298.65
  Q 490.07 298.37 490.20 297.87
  C 491.42 293.34 487.46 291.05 483.82 290.30
  A 1.26 1.26 0.0 0 0 482.35 291.88
  Z
  M 472.36 300.76
  C 471.31 305.55 474.55 315.79 480.88 310.69
  Q 481.31 310.35 481.23 309.80
  C 480.71 306.26 477.34 300.57 473.01 300.27
  Q 472.47 300.23 472.36 300.76
  Z
  M 302.43 326.31
  C 303.98 327.51 313.92 322.10 315.86 321.10
  Q 316.35 320.85 316.20 320.31
  L 315.14 316.50
  Q 315.01 316.02 314.57 316.27
  L 306.16 321.07
  Q 305.68 321.34 305.15 321.18
  L 298.47 319.15
  A 1.08 1.08 0.0 0 0 297.27 320.79
  Q 299.54 324.08 302.43 326.31
  Z
  M 305.66 329.44
  C 305.64 329.66 314.65 335.95 315.60 336.60
  C 319.22 339.05 322.33 339.98 326.47 340.70
  A 0.28 0.28 0.0 0 0 326.76 340.29
  L 317.14 323.39
  Q 316.93 323.02 316.55 323.21
  L 305.89 328.34
  A 1.20 0.14 -85.0 0 0 305.66 329.44
  Z
  M 285.84 342.50
  Q 299.45 350.28 314.48 354.86
  A 0.71 0.71 0.0 0 0 315.39 354.29
  Q 316.39 347.88 319.03 341.94
  A 0.77 0.77 0.0 0 0 318.71 340.95
  Q 306.42 334.02 296.69 323.82
  A 0.58 0.58 0.0 0 0 295.73 324.02
  Q 292.00 334.14 284.74 342.07
  Q 284.65 342.18 284.79 342.20
  L 285.05 342.23
  Q 285.47 342.29 285.84 342.50
  Z"
/>
<path fill="#f3cdca" d="
  M 171.39 145.45
  A 1.22 1.21 16.3 0 1 172.01 146.57
  Q 171.89 149.17 170.38 151.25
  Q 170.07 151.68 169.56 151.57
  C 154.23 148.47 152.30 132.65 153.85 119.87
  Q 155.22 108.56 156.46 97.23
  Q 156.52 96.68 157.06 96.79
  C 172.94 100.04 189.61 97.62 200.13 112.40
  Q 200.49 112.91 199.95 113.22
  L 197.46 114.68
  Q 196.96 114.97 196.57 114.54
  C 191.14 108.58 183.78 106.93 176.07 106.36
  C 169.37 105.86 165.80 105.26 160.62 102.47
  A 0.93 0.93 0.0 0 0 159.24 103.27
  Q 159.22 104.43 159.39 105.98
  Q 160.82 119.09 162.39 132.18
  Q 163.43 140.96 171.39 145.45
  Z"
/>
<path fill="#56515b" d="
  M 324.50 103.21
  L 324.13 103.72
  Q 323.83 104.13 323.33 104.17
  C 308.69 105.55 288.44 102.12 278.36 116.14
  A 2.66 2.66 0.0 0 1 275.08 117.01
  L 269.80 114.60
  Q 269.54 114.48 269.45 114.20
  L 269.29 113.75
  L 275.84 116.37
  A 1.18 1.17 29.5 0 0 277.21 115.99
  C 285.02 105.55 297.73 103.97 309.82 103.97
  C 314.32 103.98 319.52 102.90 324.50 103.21
  Z"
/>
<path fill="#f3cdca" d="
  M 318.94 110.78
  C 305.43 110.44 292.76 109.70 282.46 120.37
  Q 282.08 120.76 281.65 120.43
  L 278.95 118.41
  Q 278.54 118.11 278.86 117.71
  C 289.61 104.29 307.09 106.80 322.58 105.75
  A 0.79 0.78 86.8 0 1 323.42 106.51
  Q 323.75 118.98 323.85 131.50
  Q 323.93 140.99 321.46 146.49
  C 320.78 148.01 317.72 150.64 316.19 152.82
  Q 312.78 157.68 306.33 158.32
  A 0.53 0.52 -12.7 0 1 305.80 157.99
  L 303.28 151.42
  Q 303.11 150.97 303.46 150.63
  C 314.05 140.57 316.47 125.84 320.15 112.41
  A 1.29 1.29 0.0 0 0 318.94 110.78
  Z"
/>
<path fill="#eba5a4" d="
  M 193.88 114.87
  Q 195.05 115.71 193.89 116.57
  Q 180.14 126.70 174.02 142.68
  A 1.21 1.21 0.0 0 1 172.26 143.28
  C 164.63 138.60 165.10 133.61 163.87 123.60
  Q 162.83 115.08 161.81 106.53
  Q 161.74 105.99 162.27 106.15
  Q 169.53 108.38 177.03 108.98
  C 184.95 109.61 187.94 110.65 193.88 114.87
  Z"
/>
<path fill="#56515b" d="
  M 223.50 107.54
  Q 219.56 109.52 215.25 108.54
  Q 219.27 107.22 223.50 107.54
  Z"
/>
<path fill="#56515b" d="
  M 234.25 107.54
  C 239.06 107.38 243.82 107.25 248.55 108.34
  Q 250.32 108.75 252.74 109.00
  Q 259.98 109.73 267.75 113.29
  L 267.61 113.51
  Q 267.49 113.70 267.27 113.64
  Q 251.11 108.73 234.25 107.54
  Z"
/>
<path fill="#56515b" d="
  M 212.75 108.96
  Q 210.80 110.61 208.29 110.85
  C 205.96 111.07 204.91 111.55 203.08 112.63
  Q 202.63 112.89 202.20 112.61
  Q 200.93 111.76 201.29 110.00
  L 202.57 111.37
  Q 202.94 111.77 203.43 111.54
  Q 207.88 109.49 212.75 108.96
  Z"
/>
<path fill="#f1c6c5" d="
  M 164.36 325.79
  C 163.30 327.17 166.27 329.71 167.15 330.58
  Q 185.22 348.51 210.00 354.45
  Q 210.42 354.55 210.41 354.98
  L 210.18 368.52
  Q 210.17 369.03 209.67 369.03
  C 182.78 369.14 155.82 360.62 139.05 337.96
  C 124.42 318.19 133.26 289.26 142.73 269.44
  Q 154.99 243.79 158.88 236.60
  C 167.36 220.94 166.95 206.61 166.96 188.02
  C 166.99 157.70 178.85 117.65 213.23 111.23
  C 233.25 107.48 262.42 109.55 279.67 122.03
  C 294.20 132.54 302.60 152.55 306.13 170.13
  Q 306.22 170.60 306.06 171.06
  C 296.01 199.79 298.91 234.12 305.94 263.58
  A 0.63 0.63 0.0 0 1 304.89 264.18
  C 292.99 253.06 271.83 250.60 260.48 264.98
  Q 260.15 265.39 259.63 265.33
  C 255.38 264.78 251.73 264.54 247.81 262.62
  Q 221.83 249.91 201.33 229.56
  Q 197.88 226.13 195.46 225.44
  C 187.27 223.09 182.29 234.14 183.05 240.64
  Q 183.53 244.72 187.00 249.62
  C 201.25 269.72 223.82 280.05 247.77 283.31
  Q 248.26 283.37 248.59 283.73
  C 250.63 285.95 255.10 286.37 257.93 286.78
  Q 258.44 286.85 258.63 287.33
  C 264.21 301.36 282.11 311.84 295.24 317.79
  A 0.57 0.55 -66.8 0 1 295.52 318.51
  C 289.15 334.35 283.50 343.50 267.25 351.11
  Q 248.59 359.83 227.63 361.19
  Q 226.60 361.26 227.14 360.38
  L 228.75 357.76
  A 1.25 1.25 0.0 0 0 228.28 356.01
  Q 221.54 352.31 213.76 352.15
  C 196.71 351.79 176.78 338.04 165.68 325.74
  A 0.86 0.86 0.0 0 0 164.36 325.79
  Z
  M 285.68 148.63
  Q 281.76 156.87 273.14 152.59
  Q 272.33 152.19 272.26 153.09
  L 272.13 154.71
  Q 272.09 155.31 272.69 155.30
  Q 276.86 155.22 276.66 159.34
  Q 276.60 160.65 277.61 159.82
  Q 278.96 158.72 278.41 156.89
  Q 278.21 156.21 278.92 156.14
  L 281.77 155.85
  Q 282.39 155.78 282.60 156.37
  L 283.36 158.56
  A 0.89 0.88 64.3 0 0 284.66 159.02
  C 286.83 157.70 281.89 153.44 287.34 151.96
  Q 287.88 151.82 288.27 152.21
  L 289.76 153.70
  Q 290.16 154.10 290.71 154.00
  Q 291.49 153.85 291.33 152.56
  Q 291.26 152.01 290.83 151.64
  L 286.97 148.36
  Q 286.14 147.65 285.68 148.63
  Z
  M 219.44 157.18
  L 219.64 159.58
  Q 219.69 160.25 220.33 160.05
  L 221.12 159.80
  Q 221.65 159.63 221.69 159.08
  Q 221.95 155.65 225.04 155.15
  Q 225.54 155.07 225.69 154.60
  Q 226.02 153.53 225.54 152.76
  Q 225.19 152.23 224.64 152.54
  Q 216.19 157.38 211.79 149.61
  A 0.78 0.78 0.0 0 0 210.54 149.47
  L 206.67 153.76
  Q 206.29 154.19 206.54 154.71
  C 207.55 156.73 209.22 153.98 210.21 153.25
  Q 210.59 152.96 211.02 153.17
  Q 214.77 154.99 212.95 158.61
  Q 212.69 159.13 213.13 159.52
  L 213.70 160.01
  Q 214.42 160.63 214.75 159.74
  L 215.45 157.87
  Q 215.62 157.42 216.00 157.13
  Q 217.27 156.15 218.95 156.60
  Q 219.41 156.72 219.44 157.18
  Z
  M 265.49 156.53
  C 253.08 153.39 217.33 151.27 216.45 171.77
  C 215.85 185.75 228.24 194.79 240.73 196.88
  C 254.95 199.28 273.39 194.00 279.03 179.55
  C 283.51 168.09 276.32 159.28 265.49 156.53
  Z
  M 222.77 193.14
  Q 213.85 191.38 213.32 182.21
  Q 213.28 181.45 212.56 181.72
  L 211.37 182.16
  Q 210.93 182.32 210.98 182.80
  Q 212.14 193.35 222.55 195.36
  Q 223.27 195.49 223.27 194.76
  L 223.27 193.75
  A 0.62 0.62 0.0 0 0 222.77 193.14
  Z
  M 232.71 297.13
  C 237.00 298.44 238.03 290.27 232.76 290.01
  A 0.75 0.75 0.0 0 0 232.19 291.29
  L 234.44 293.58
  Q 234.98 294.13 234.25 294.37
  C 233.23 294.72 230.52 294.77 232.20 296.79
  Q 232.41 297.03 232.71 297.13
  Z"
/>
<path fill="#eba5a4" d="
  M 303.30 147.86
  Q 302.26 149.08 301.65 147.59
  Q 295.70 133.13 284.25 122.55
  A 0.50 0.50 0.0 0 1 284.23 121.83
  C 293.74 112.04 304.40 113.51 316.80 113.49
  Q 317.27 113.49 317.16 113.94
  C 314.19 127.20 311.21 138.56 303.30 147.86
  Z"
/>
<path fill="#56515b" d="
  M 441.79 122.50
  Q 440.32 122.52 440.51 120.36
  Q 440.57 119.71 439.92 119.72
  C 434.73 119.81 430.36 121.85 425.41 121.97
  Q 410.00 122.32 399.65 133.76
  Q 399.34 134.10 398.88 134.07
  Q 395.45 133.87 392.66 131.92
  Q 395.68 132.09 398.02 133.47
  A 1.13 1.13 0.0 0 0 399.51 133.15
  C 404.67 125.92 412.73 122.82 421.21 121.53
  Q 430.48 120.12 439.75 118.61
  Q 440.27 118.53 440.56 118.97
  Q 441.61 120.55 441.79 122.50
  Z"
/>
<path fill="#f3cdca" d="
  M 401.56 134.39
  C 407.91 123.56 427.63 123.25 438.61 121.45
  Q 439.14 121.36 439.20 121.89
  Q 441.53 140.28 442.02 149.22
  C 442.49 157.69 438.96 167.13 430.40 170.73
  Q 429.90 170.94 429.73 170.43
  L 428.04 165.51
  Q 427.86 164.96 428.29 164.57
  C 432.05 161.20 433.59 157.94 434.12 152.61
  Q 435.37 139.90 437.00 127.17
  A 0.82 0.81 78.5 0 0 435.78 126.36
  C 425.46 132.35 414.09 128.02 404.69 136.45
  Q 404.32 136.78 403.90 136.51
  L 401.72 135.07
  Q 401.31 134.81 401.56 134.39
  Z"
/>
<path fill="#56515b" d="
  M 385.01 130.44
  C 377.43 130.81 368.99 131.57 361.50 130.54
  Q 373.22 128.52 385.01 130.44
  Z"
/>
<path fill="#eba5a4" d="
  M 428.08 161.69
  Q 427.31 162.68 426.83 161.51
  Q 420.77 146.63 407.00 138.33
  A 0.82 0.82 0.0 0 1 407.00 136.93
  C 412.36 133.66 415.86 132.89 422.92 132.29
  Q 428.57 131.80 433.98 129.96
  Q 434.47 129.79 434.41 130.31
  Q 433.04 142.21 431.76 154.11
  C 431.36 157.77 430.21 158.97 428.08 161.69
  Z"
/>
<path fill="#56515b" d="
  M 357.13 131.15
  Q 351.64 133.65 345.48 133.64
  Q 351.03 131.37 357.13 131.15
  Z"
/>
<path fill="#f3cdca" d="
  M 392.50 141.84
  C 390.43 141.18 389.84 145.05 387.93 142.71
  Q 386.78 141.29 388.47 140.58
  Q 392.76 138.77 396.67 140.94
  A 2.16 2.16 0.0 0 1 397.47 143.96
  Q 396.55 145.46 394.46 146.12
  Q 385.21 149.02 378.54 142.82
  C 376.97 141.37 376.70 139.12 377.49 137.29
  Q 379.92 131.68 386.15 132.72
  C 404.10 135.73 419.72 147.09 425.47 164.76
  Q 428.76 174.87 430.36 185.32
  C 433.32 204.67 428.78 224.19 436.50 242.85
  C 447.09 268.48 470.27 309.58 453.37 336.84
  C 439.32 359.50 411.71 366.31 386.90 367.42
  Q 386.51 367.44 386.51 367.06
  L 386.37 354.19
  Q 386.36 353.86 386.69 353.78
  Q 411.47 348.09 428.50 329.38
  A 1.42 1.41 69.5 0 0 428.86 328.58
  C 429.10 326.48 427.90 326.71 426.94 327.75
  C 416.96 338.61 398.51 351.45 383.28 351.66
  Q 375.93 351.77 369.00 355.44
  A 0.57 0.56 60.2 0 0 368.79 356.24
  L 371.27 360.25
  A 0.28 0.27 78.1 0 1 371.00 360.67
  C 343.40 356.23 326.08 342.12 316.98 315.50
  A 1.56 1.55 -27.6 0 1 317.54 313.73
  Q 332.75 302.60 343.69 287.25
  Q 344.00 286.82 344.53 286.86
  Q 351.41 287.37 353.20 286.44
  C 355.22 285.39 356.53 284.20 358.87 283.80
  C 380.41 280.13 401.63 269.36 413.89 250.68
  Q 419.24 242.52 411.99 236.28
  C 401.65 227.39 394.93 240.35 388.36 245.79
  Q 373.62 257.99 355.04 266.76
  Q 352.05 268.18 349.35 268.01
  Q 348.78 267.97 348.59 267.43
  C 344.93 257.15 330.59 257.22 322.41 260.63
  Q 314.85 263.78 309.56 269.93
  A 0.47 0.47 0.0 0 1 308.74 269.70
  Q 306.33 254.17 303.97 238.92
  C 299.02 206.84 301.14 159.18 333.85 140.81
  C 346.65 133.63 362.90 131.45 377.80 132.40
  A 0.33 0.33 0.0 0 1 378.01 132.97
  Q 373.47 137.27 375.49 142.00
  C 378.46 148.95 388.28 150.20 394.83 148.34
  C 406.96 144.90 396.37 133.65 387.14 139.13
  C 380.39 143.14 392.45 149.75 393.05 142.66
  Q 393.11 142.03 392.50 141.84
  Z
  M 335.78 175.02
  L 338.58 173.88
  Q 339.00 173.71 339.00 173.26
  L 339.00 172.80
  Q 339.00 172.17 338.38 172.27
  C 332.94 173.11 328.89 173.99 326.23 167.93
  Q 326.01 167.43 325.56 167.74
  C 324.30 168.59 320.18 171.62 321.90 173.44
  Q 322.25 173.81 322.63 173.46
  L 324.48 171.72
  Q 324.91 171.32 325.43 171.59
  Q 328.57 173.28 326.70 175.61
  Q 326.43 175.95 326.44 176.38
  Q 326.50 178.06 328.07 177.69
  Q 328.58 177.57 328.82 177.11
  L 329.62 175.52
  Q 329.90 174.98 330.51 175.00
  L 331.82 175.03
  Q 332.33 175.04 332.44 175.55
  L 332.95 177.99
  Q 333.05 178.46 333.53 178.54
  C 334.44 178.69 334.89 176.70 335.13 175.77
  Q 335.26 175.23 335.78 175.02
  Z
  M 389.10 175.52
  L 391.16 175.49
  Q 391.86 175.48 392.10 176.13
  L 392.96 178.44
  Q 393.21 179.10 393.81 178.72
  L 394.27 178.43
  Q 394.85 178.06 394.55 177.44
  Q 393.04 174.25 396.19 172.67
  Q 396.76 172.38 397.21 172.83
  L 399.08 174.71
  A 0.69 0.68 -67.6 0 0 400.25 174.22
  L 400.25 173.34
  Q 400.25 172.84 399.90 172.48
  L 396.60 169.01
  Q 396.25 168.65 395.88 168.99
  C 394.60 170.21 394.18 171.80 392.70 172.60
  C 388.97 174.64 386.64 172.38 382.91 172.49
  A 0.63 0.62 57.6 0 0 382.65 173.67
  L 386.14 175.45
  Q 386.61 175.69 386.58 176.22
  L 386.48 178.00
  Q 386.45 178.48 386.89 178.70
  C 388.56 179.52 388.65 177.16 388.50 176.25
  Q 388.38 175.53 389.10 175.52
  Z
  M 336.36 181.37
  C 329.37 189.29 336.05 201.99 343.17 206.60
  Q 360.18 217.63 379.44 208.93
  C 386.13 205.90 391.17 199.13 391.48 191.72
  C 392.21 174.51 368.20 172.66 356.31 173.61
  C 347.94 174.28 341.66 175.37 336.36 181.37
  Z
  M 419.31 189.71
  A 11.78 11.78 0.0 0 0 407.53 177.93
  A 11.78 11.78 0.0 0 0 395.75 189.71
  A 11.78 11.78 0.0 0 0 407.53 201.49
  A 11.78 11.78 0.0 0 0 419.31 189.71
  Z
  M 330.8295 190.1728
  A 10.84 10.62 4.3 0 0 320.8163 178.7699
  A 10.84 10.62 4.3 0 0 309.2105 188.5472
  A 10.84 10.62 4.3 0 0 319.2237 199.9501
  A 10.84 10.62 4.3 0 0 330.8295 190.1728
  Z
  M 394.30 198.85
  Q 393.50 207.05 385.46 208.62
  Q 384.85 208.73 384.99 209.34
  L 385.22 210.33
  Q 385.37 210.99 386.04 210.85
  Q 394.85 209.02 396.36 200.18
  C 396.56 198.98 395.68 198.15 394.47 198.63
  A 0.26 0.25 -9.3 0 0 394.30 198.85
  Z
  M 365.30 298.06
  Q 366.26 297.35 366.29 296.16
  A 0.79 0.79 0.0 0 0 365.09 295.46
  Q 363.43 296.44 362.76 298.18
  Q 362.57 298.68 362.83 299.14
  C 363.64 300.56 365.66 302.55 366.66 300.45
  Q 366.89 299.95 366.43 299.64
  L 365.32 298.88
  Q 364.73 298.49 365.30 298.06
  Z"
/>
<path fill="#56515b" d="
  M 442.96 133.00
  L 443.54 138.00
  Q 443.45 138.08 443.38 138.22
  Q 443.10 138.71 442.89 138.19
  Q 441.83 135.60 442.96 133.00
  Z"
/>
<path fill="#56515b" d="
  M 341.25 134.79
  Q 341.35 134.88 341.41 135.02
  Q 341.56 135.37 341.20 135.53
  L 334.68 138.31
  Q 334.37 138.44 334.20 138.15
  L 333.30 136.67
  Q 337.50 136.99 341.25 134.79
  Z"
/>
<path fill="#f3cdca" d="
  M 326.56 135.47
  Q 326.80 134.89 327.37 135.14
  Q 330.17 136.37 331.93 138.89
  Q 332.25 139.34 331.73 139.54
  L 328.90 140.59
  Q 328.47 140.75 328.06 140.53
  Q 325.15 139.02 326.56 135.47
  Z"
/>
<path fill="#56515b" d="
  M 151.72 135.91
  Q 153.92 139.42 154.77 143.49
  Q 152.14 140.20 151.72 135.91
  Z"
/>
<ellipse fill="#eba5a4" cx="0.00" cy="0.00" transform="translate(325.58,142.42) rotate(108.1)" rx="0.98" ry="0.60"/>
<path fill="#040304" d="
  M 285.68 148.63
  Q 286.14 147.65 286.97 148.36
  L 290.83 151.64
  Q 291.26 152.01 291.33 152.56
  Q 291.49 153.85 290.71 154.00
  Q 290.16 154.10 289.76 153.70
  L 288.27 152.21
  Q 287.88 151.82 287.34 151.96
  C 281.89 153.44 286.83 157.70 284.66 159.02
  A 0.89 0.88 64.3 0 1 283.36 158.56
  L 282.60 156.37
  Q 282.39 155.78 281.77 155.85
  L 278.92 156.14
  Q 278.21 156.21 278.41 156.89
  Q 278.96 158.72 277.61 159.82
  Q 276.60 160.65 276.66 159.34
  Q 276.86 155.22 272.69 155.30
  Q 272.09 155.31 272.13 154.71
  L 272.26 153.09
  Q 272.33 152.19 273.14 152.59
  Q 281.76 156.87 285.68 148.63
  Z"
/>
<path fill="#040304" d="
  M 218.95 156.60
  Q 217.27 156.15 216.00 157.13
  Q 215.62 157.42 215.45 157.87
  L 214.75 159.74
  Q 214.42 160.63 213.70 160.01
  L 213.13 159.52
  Q 212.69 159.13 212.95 158.61
  Q 214.77 154.99 211.02 153.17
  Q 210.59 152.96 210.21 153.25
  C 209.22 153.98 207.55 156.73 206.54 154.71
  Q 206.29 154.19 206.67 153.76
  L 210.54 149.47
  A 0.78 0.78 0.0 0 1 211.79 149.61
  Q 216.19 157.38 224.64 152.54
  Q 225.19 152.23 225.54 152.76
  Q 226.02 153.53 225.69 154.60
  Q 225.54 155.07 225.04 155.15
  Q 221.95 155.65 221.69 159.08
  Q 221.65 159.63 221.12 159.80
  L 220.33 160.05
  Q 219.69 160.25 219.64 159.58
  L 219.44 157.18
  Q 219.41 156.72 218.95 156.60
  Z"
/>
<path fill="#56515b" d="
  M 168.54 157.25
  Q 169.06 155.72 168.46 154.25
  Q 168.85 153.95 169.33 153.99
  Q 169.84 154.03 169.93 154.55
  Q 170.23 156.31 168.54 157.25
  Z"
/>
<path fill="#040304" d="
  M 216.45 171.77
  C 217.33 151.27 253.08 153.39 265.49 156.53
  C 276.32 159.28 283.51 168.09 279.03 179.55
  C 273.39 194.00 254.95 199.28 240.73 196.88
  C 228.24 194.79 215.85 185.75 216.45 171.77
  Z
  M 276.04 166.16
  C 267.94 153.20 227.03 153.14 220.27 166.71
  C 214.85 177.60 223.86 188.65 233.58 192.42
  Q 250.33 198.92 266.01 190.50
  C 274.42 185.99 281.60 175.04 276.04 166.16
  Z"
/>
<path fill="#eba5a4" d="
  M 220.27 166.71
  C 227.03 153.14 267.94 153.20 276.04 166.16
  C 281.60 175.04 274.42 185.99 266.01 190.50
  Q 250.33 198.92 233.58 192.42
  C 223.86 188.65 214.85 177.60 220.27 166.71
  Z
  M 265.83 170.91
  A 3.41 3.41 0.0 0 0 262.42 167.50
  A 3.41 3.41 0.0 0 0 259.01 170.91
  A 3.41 3.41 0.0 0 0 262.42 174.32
  A 3.41 3.41 0.0 0 0 265.83 170.91
  Z
  M 236.51 171.38
  A 3.34 3.34 0.0 0 0 233.17 168.04
  A 3.34 3.34 0.0 0 0 229.83 171.38
  A 3.34 3.34 0.0 0 0 233.17 174.72
  A 3.34 3.34 0.0 0 0 236.51 171.38
  Z"
/>
<path fill="#f1c6c5" d="
  M 307.79 160.43
  L 310.28 159.76
  A 0.53 0.53 0.0 0 1 310.86 160.56
  L 309.45 162.72
  A 0.53 0.53 0.0 0 1 308.58 162.74
  L 307.50 161.25
  A 0.53 0.53 0.0 0 1 307.79 160.43
  Z"
/>
<path fill="#040304" d="
  M 335.13 175.77
  C 334.89 176.70 334.44 178.69 333.53 178.54
  Q 333.05 178.46 332.95 177.99
  L 332.44 175.55
  Q 332.33 175.04 331.82 175.03
  L 330.51 175.00
  Q 329.90 174.98 329.62 175.52
  L 328.82 177.11
  Q 328.58 177.57 328.07 177.69
  Q 326.50 178.06 326.44 176.38
  Q 326.43 175.95 326.70 175.61
  Q 328.57 173.28 325.43 171.59
  Q 324.91 171.32 324.48 171.72
  L 322.63 173.46
  Q 322.25 173.81 321.90 173.44
  C 320.18 171.62 324.30 168.59 325.56 167.74
  Q 326.01 167.43 326.23 167.93
  C 328.89 173.99 332.94 173.11 338.38 172.27
  Q 339.00 172.17 339.00 172.80
  L 339.00 173.26
  Q 339.00 173.71 338.58 173.88
  L 335.78 175.02
  Q 335.26 175.23 335.13 175.77
  Z"
/>
<circle fill="#040304" cx="262.42" cy="170.91" r="3.41"/>
<circle fill="#040304" cx="233.17" cy="171.38" r="3.34"/>
<path fill="#040304" d="
  M 388.50 176.25
  C 388.65 177.16 388.56 179.52 386.89 178.70
  Q 386.45 178.48 386.48 178.00
  L 386.58 176.22
  Q 386.61 175.69 386.14 175.45
  L 382.65 173.67
  A 0.63 0.62 57.6 0 1 382.91 172.49
  C 386.64 172.38 388.97 174.64 392.70 172.60
  C 394.18 171.80 394.60 170.21 395.88 168.99
  Q 396.25 168.65 396.60 169.01
  L 399.90 172.48
  Q 400.25 172.84 400.25 173.34
  L 400.25 174.22
  A 0.69 0.68 -67.6 0 1 399.08 174.71
  L 397.21 172.83
  Q 396.76 172.38 396.19 172.67
  Q 393.04 174.25 394.55 177.44
  Q 394.85 178.06 394.27 178.43
  L 393.81 178.72
  Q 393.21 179.10 392.96 178.44
  L 392.10 176.13
  Q 391.86 175.48 391.16 175.49
  L 389.10 175.52
  Q 388.38 175.53 388.50 176.25
  Z"
/>
<path fill="#56515b" d="
  M 165.54 170.50
  Q 166.50 176.42 165.73 182.33
  C 164.81 189.47 165.62 196.70 165.08 204.15
  A 0.31 0.31 0.0 0 1 164.47 204.22
  L 164.04 202.75
  Q 163.55 186.57 165.54 170.50
  Z"
/>
<path fill="#56515b" d="
  M 431.25 172.79
  Q 430.89 174.56 431.39 176.57
  Q 429.89 175.16 430.05 173.05
  Q 430.08 172.66 430.48 172.70
  L 431.25 172.79
  Z"
/>
<path fill="#040304" d="
  M 336.36 181.37
  C 341.66 175.37 347.94 174.28 356.31 173.61
  C 368.20 172.66 392.21 174.51 391.48 191.72
  C 391.17 199.13 386.13 205.90 379.44 208.93
  Q 360.18 217.63 343.17 206.60
  C 336.05 201.99 329.37 189.29 336.36 181.37
  Z
  M 349.23 176.58
  C 342.53 177.94 334.24 183.66 335.77 191.51
  C 340.08 213.65 375.36 216.42 386.78 199.25
  C 393.65 188.93 386.85 180.15 376.30 177.36
  Q 362.82 173.81 349.23 176.58
  Z"
/>
<path fill="#eba5a4" d="
  M 335.77 191.51
  C 334.24 183.66 342.53 177.94 349.23 176.58
  Q 362.82 173.81 376.30 177.36
  C 386.85 180.15 393.65 188.93 386.78 199.25
  C 375.36 216.42 340.08 213.65 335.77 191.51
  Z
  M 353.01 188.04
  A 3.17 3.17 0.0 0 0 349.84 184.87
  A 3.17 3.17 0.0 0 0 346.67 188.04
  A 3.17 3.17 0.0 0 0 349.84 191.21
  A 3.17 3.17 0.0 0 0 353.01 188.04
  Z
  M 379.59 189.44
  A 3.19 3.19 0.0 0 0 376.40 186.25
  A 3.19 3.19 0.0 0 0 373.21 189.44
  A 3.19 3.19 0.0 0 0 376.40 192.63
  A 3.19 3.19 0.0 0 0 379.59 189.44
  Z"
/>
<circle fill="#f1c6c5" cx="407.53" cy="189.71" r="11.78"/>
<ellipse fill="#f1c6c5" cx="0.00" cy="0.00" transform="translate(320.02,189.36) rotate(4.3)" rx="10.84" ry="10.62"/>
<path fill="#040304" d="
  M 222.77 193.14
  A 0.62 0.62 0.0 0 1 223.27 193.75
  L 223.27 194.76
  Q 223.27 195.49 222.55 195.36
  Q 212.14 193.35 210.98 182.80
  Q 210.93 182.32 211.37 182.16
  L 212.56 181.72
  Q 213.28 181.45 213.32 182.21
  Q 213.85 191.38 222.77 193.14
  Z"
/>
<circle fill="#040304" cx="349.84" cy="188.04" r="3.17"/>
<circle fill="#040304" cx="376.40" cy="189.44" r="3.19"/>
<path fill="#040304" d="
  M 394.30 198.85
  A 0.26 0.25 -9.3 0 1 394.47 198.63
  C 395.68 198.15 396.56 198.98 396.36 200.18
  Q 394.85 209.02 386.04 210.85
  Q 385.37 210.99 385.22 210.33
  L 384.99 209.34
  Q 384.85 208.73 385.46 208.62
  Q 393.50 207.05 394.30 198.85
  Z"
/>
<path fill="#f3cdca" d="
  M 198.09 229.42
  C 213.17 245.11 230.38 256.79 249.87 266.04
  Q 250.37 266.27 250.24 266.81
  Q 248.59 273.62 249.04 280.62
  Q 249.09 281.39 248.33 281.28
  C 225.74 277.95 204.50 268.88 190.30 250.43
  Q 186.26 245.18 185.47 241.36
  C 184.50 236.61 186.90 228.86 192.46 227.60
  Q 195.65 226.88 198.09 229.42
  Z"
/>
<path fill="#f3cdca" d="
  M 398.69 238.94
  C 401.10 236.13 403.20 234.80 407.00 236.07
  C 412.55 237.93 415.98 243.15 412.32 248.73
  C 399.65 268.07 378.68 278.21 356.54 282.24
  Q 356.04 282.33 356.01 281.83
  L 355.19 269.85
  Q 355.15 269.29 355.66 269.05
  C 371.25 261.61 387.80 251.63 398.69 238.94
  Z"
/>
<path fill="#e2746e" d="
  M 268.65 285.16
  A 0.72 0.72 0.0 0 0 269.07 284.07
  L 264.92 277.79
  Q 264.70 277.47 264.92 277.14
  L 268.85 271.28
  A 1.46 1.46 0.0 0 0 268.30 269.17
  L 262.57 266.24
  A 0.42 0.41 36.8 0 1 262.47 265.57
  C 276.68 251.98 300.75 255.03 308.18 274.33
  A 0.56 0.56 0.0 0 0 309.17 274.44
  C 316.75 263.28 335.48 253.85 346.16 266.74
  A 1.37 1.37 0.0 0 1 345.68 268.86
  L 338.58 272.09
  Q 337.92 272.39 338.30 273.01
  L 341.61 278.52
  A 1.22 1.21 48.9 0 1 341.52 279.91
  L 338.55 283.67
  Q 338.02 284.34 338.62 284.95
  L 340.52 286.84
  Q 340.93 287.25 340.64 287.76
  Q 339.96 288.93 338.70 290.44
  Q 325.40 306.36 309.11 316.91
  C 306.50 318.60 303.38 318.57 300.72 317.58
  C 286.45 312.24 268.68 301.82 261.07 287.78
  A 0.58 0.58 0.0 0 1 261.44 286.94
  L 268.65 285.16
  Z"
/>
<path fill="#040304" d="
  M 232.71 297.13
  Q 232.41 297.03 232.20 296.79
  C 230.52 294.77 233.23 294.72 234.25 294.37
  Q 234.98 294.13 234.44 293.58
  L 232.19 291.29
  A 0.75 0.75 0.0 0 1 232.76 290.01
  C 238.03 290.27 237.00 298.44 232.71 297.13
  Z"
/>
<path fill="#040304" d="
  M 365.32 298.88
  L 366.43 299.64
  Q 366.89 299.95 366.66 300.45
  C 365.66 302.55 363.64 300.56 362.83 299.14
  Q 362.57 298.68 362.76 298.18
  Q 363.43 296.44 365.09 295.46
  A 0.79 0.79 0.0 0 1 366.29 296.16
  Q 366.26 297.35 365.30 298.06
  Q 364.73 298.49 365.32 298.88
  Z"
/>
<path fill="#56515b" d="
  M 459.96 297.75
  Q 460.36 299.24 461.76 299.79
  C 460.15 302.51 458.39 298.37 459.96 297.75
  Z"
/>
<path fill="#56515b" d="
  M 129.54 304.24
  L 129.80 318.25
  Q 129.81 318.64 129.50 318.86
  L 129.29 319.00
  Q 127.59 311.66 129.54 304.24
  Z"
/>
<path fill="#56515b" d="
  M 461.00 306.70
  Q 462.47 310.42 461.89 314.31
  Q 460.02 310.70 461.00 306.70
  Z"
/>
<path fill="#e1dbda" d="
  M 302.43 326.31
  Q 299.54 324.08 297.27 320.79
  A 1.08 1.08 0.0 0 1 298.47 319.15
  L 305.15 321.18
  Q 305.68 321.34 306.16 321.07
  L 314.57 316.27
  Q 315.01 316.02 315.14 316.50
  L 316.20 320.31
  Q 316.35 320.85 315.86 321.10
  C 313.92 322.10 303.98 327.51 302.43 326.31
  Z"
/>
<path fill="#e1dbda" d="
  M 463.41 331.42
  C 460.04 328.39 466.97 325.65 469.01 325.02
  C 477.68 322.36 486.28 318.57 495.75 319.95
  C 500.59 320.65 511.36 326.34 504.28 331.81
  C 497.31 337.20 488.62 329.15 481.33 328.59
  C 475.75 328.16 469.34 329.76 463.98 331.54
  A 0.57 0.57 0.0 0 1 463.41 331.42
  Z"
/>
<path fill="#f1c6c5" d="
  M 315.60 336.60
  C 314.65 335.95 305.64 329.66 305.66 329.44
  A 1.20 0.14 -85.0 0 1 305.89 328.34
  L 316.55 323.21
  Q 316.93 323.02 317.14 323.39
  L 326.76 340.29
  A 0.28 0.28 0.0 0 1 326.47 340.70
  C 322.33 339.98 319.22 339.05 315.60 336.60
  Z"
/>
<path fill="#f1c6c5" d="
  M 285.05 342.23
  L 284.79 342.20
  Q 284.65 342.18 284.74 342.07
  Q 292.00 334.14 295.73 324.02
  A 0.58 0.58 0.0 0 1 296.69 323.82
  Q 306.42 334.02 318.71 340.95
  A 0.77 0.77 0.0 0 1 319.03 341.94
  Q 316.39 347.88 315.39 354.29
  A 0.71 0.71 0.0 0 1 314.48 354.86
  Q 299.45 350.28 285.84 342.50
  Q 285.47 342.29 285.05 342.23
  Z"
/>
<path fill="#e1dbda" d="
  M 460.71 324.25
  C 460.86 329.72 458.41 332.37 456.66 337.30
  A 0.72 0.72 0.0 0 0 457.39 338.26
  C 462.89 337.89 494.69 336.52 494.30 346.46
  C 494.08 352.23 469.15 363.65 463.75 366.50
  C 453.23 372.08 444.78 373.63 432.26 375.29
  Q 431.69 375.37 431.32 375.81
  Q 429.65 377.77 429.53 380.45
  Q 429.50 381.11 428.87 381.33
  Q 423.92 383.08 418.01 382.73
  C 407.47 382.09 396.70 380.86 388.18 384.58
  C 381.37 387.55 392.73 392.06 394.45 393.07
  A 0.96 0.96 0.0 0 1 394.31 394.79
  C 385.65 398.16 373.89 393.58 365.70 390.00
  Q 361.65 388.23 349.92 387.26
  Q 334.94 386.03 315.76 387.11
  Q 312.09 387.32 308.01 385.38
  Q 307.56 385.17 307.34 384.71
  C 303.29 376.41 286.41 377.45 279.51 379.46
  C 272.17 381.60 269.43 388.17 262.21 389.82
  Q 247.16 393.27 232.18 389.58
  C 225.81 388.01 227.29 381.85 219.92 380.91
  Q 209.15 379.53 198.32 380.41
  Q 197.64 380.47 198.07 379.93
  Q 200.02 377.45 202.97 377.62
  Q 203.65 377.65 203.25 377.11
  L 199.39 371.88
  Q 199.08 371.45 198.58 371.29
  L 195.95 370.46
  C 201.23 370.90 206.68 370.78 211.98 372.09
  Q 220.38 374.16 228.87 371.28
  A 1.36 1.36 0.0 0 0 229.64 369.37
  Q 228.24 366.68 225.88 364.84
  A 0.60 0.60 0.0 0 1 226.20 363.77
  Q 236.36 362.88 246.26 360.81
  Q 246.81 360.70 247.04 361.25
  C 248.41 363.87 252.32 363.72 251.87 360.28
  Q 251.72 359.17 251.18 360.15
  Q 249.95 362.35 247.74 361.18
  C 246.22 359.88 248.65 359.88 249.32 359.72
  Q 260.24 357.23 270.25 352.21
  Q 270.42 352.23 270.59 352.26
  Q 270.94 352.31 270.99 352.66
  Q 271.02 352.83 271.04 353.00
  Q 271.16 354.80 273.01 354.95
  Q 282.64 355.75 292.29 356.43
  Q 298.06 356.84 301.65 357.69
  C 309.45 359.55 317.30 365.37 322.99 366.55
  C 326.89 367.35 335.40 367.28 336.79 362.00
  Q 337.32 361.20 338.15 361.58
  Q 338.61 361.78 338.72 362.28
  C 339.14 364.09 344.72 360.72 345.50 360.21
  C 351.74 363.59 358.18 365.07 364.57 367.51
  Q 365.03 367.68 365.17 368.16
  C 366.89 374.26 373.89 375.32 379.00 373.21
  Q 380.31 371.71 382.21 371.75
  Q 384.15 372.65 385.21 371.00
  L 385.21 369.75
  Q 393.75 368.84 395.99 368.73
  C 422.14 367.52 454.63 353.65 459.80 325.35
  Q 459.89 324.87 460.28 324.58
  L 460.71 324.25
  Z"
/>
<path fill="#56515b" d="
  M 134.46 335.25
  L 133.54 335.25
  L 132.96 332.75
  Q 134.88 332.90 134.46 335.25
  Z"
/>
<path fill="#e1dbda" d="
  M 133.54 335.25
  L 134.46 335.25
  Q 144.98 352.87 163.70 361.52
  L 159.23 360.09
  Q 158.76 359.94 158.42 360.29
  C 154.75 364.07 172.01 369.97 174.00 370.79
  L 179.21 375.25
  Q 182.03 379.94 187.08 381.70
  A 0.25 0.25 0.0 0 1 187.04 382.18
  C 174.59 384.53 151.99 385.62 141.07 378.05
  Q 140.65 377.76 140.43 377.30
  C 138.24 372.66 133.54 372.50 128.50 372.45
  C 122.58 372.39 102.04 372.22 100.28 365.50
  Q 100.16 365.02 100.41 364.60
  C 102.82 360.53 109.89 359.19 114.25 358.50
  C 118.38 357.85 131.51 355.80 133.73 352.25
  Q 134.04 351.76 133.66 351.32
  C 131.20 348.47 125.03 347.31 121.44 347.03
  C 114.28 346.48 90.71 345.32 87.08 341.24
  Q 86.62 340.72 87.15 340.28
  C 97.34 331.81 117.51 334.67 129.15 335.20
  C 130.40 335.25 131.97 336.09 133.54 335.25
  Z"
/>
<path fill="#e1dbda" d="
  M 66.75 354.18
  C 51.09 355.80 59.98 335.39 71.91 339.18
  Q 80.50 341.91 88.34 346.42
  C 93.05 349.13 88.20 352.15 85.19 352.42
  Q 75.96 353.23 66.75 354.18
  Z"
/>
<path fill="#56515b" d="
  M 279.18 348.37
  Q 274.55 349.73 271.04 353.00
  Q 271.02 352.83 270.99 352.66
  Q 270.94 352.31 270.59 352.26
  Q 270.42 352.23 270.25 352.21
  Q 274.18 348.82 279.18 348.37
  Z"
/>
<path fill="#56515b" d="
  M 332.50 357.21
  Q 334.30 359.09 334.53 361.56
  Q 334.58 362.06 334.08 362.17
  C 328.15 363.55 322.88 362.31 317.59 359.30
  Q 323.71 361.42 330.19 362.07
  C 334.51 362.50 331.83 358.92 332.50 357.21
  Z"
/>
<path fill="#56515b" d="
  M 345.50 360.21
  C 344.72 360.72 339.14 364.09 338.72 362.28
  Q 338.61 361.78 338.15 361.58
  Q 337.32 361.20 336.79 362.00
  C 335.85 358.11 343.97 359.50 345.50 360.21
  Z"
/>
<path fill="#56515b" d="
  M 385.21 369.75
  L 385.21 371.00
  Q 383.49 370.54 382.21 371.75
  Q 380.31 371.71 379.00 373.21
  Q 379.00 373.07 379.00 372.93
  Q 379.01 372.73 378.83 372.65
  Q 374.84 370.85 370.53 370.48
  C 365.35 370.04 368.69 365.94 370.28 364.18
  A 0.72 0.71 21.2 0 0 369.75 362.99
  Q 366.07 362.96 362.75 361.46
  Q 364.59 360.87 366.29 362.05
  Q 366.67 362.32 367.13 362.25
  Q 369.06 361.96 370.90 362.53
  Q 372.38 362.99 371.40 364.20
  L 369.15 366.95
  A 1.49 1.49 0.0 0 0 369.90 369.33
  Q 377.66 371.49 385.21 369.75
  Z"
/>
<path fill="#e2746e" d="
  M 174.00 370.79
  L 177.60 371.89
  Q 178.09 372.04 178.34 372.48
  Q 179.05 373.76 179.21 375.25
  L 174.00 370.79
  Z"
/>
</svg>
